<!-- <svg width="100" height="100" viewBox="0 0 100 100" xmlns="http://www.w3.org/2000/svg">
  <circle cx="50" cy="50" r="45" fill="white" stroke="black" stroke-width="2"/>
  <polygon points="50,5 61,35 95,35 67,55 76,90 50,70 24,90 33,55 5,35 39,35" fill="black"/>
</svg> -->

<!-- <svg width="100" height="100" viewBox="0 0 100 100" xmlns="http://www.w3.org/2000/svg">
  <circle cx="50" cy="50" r="45" fill="#FF8C00" stroke="black" stroke-width="2"/>
  <path d="M5,50 a45,45 0 1,1 90,0 a45,45 0 1,1 -90,0" fill="none" stroke="black" stroke-width="2"/>
  <path d="M50,5 a45,45 0 0,1 0,90" fill="none" stroke="black" stroke-width="2"/>
</svg> -->

<!-- <svg width="100" height="100" viewBox="0 0 100 100" xmlns="http://www.w3.org/2000/svg">
  <circle cx="50" cy="50" r="45" fill="#A3D500" stroke="black" stroke-width="2"/>
  <path d="M15,50 a35,35 0 1,0 70,0 a35,35 0 1,0 -70,0" fill="none" stroke="white" stroke-width="5"/>
  <path d="M50,15 a35,35 0 0,1 0,70" fill="none" stroke="white" stroke-width="5"/>
</svg> -->

<!-- <svg width="100" height="100" viewBox="0 0 100 100" xmlns="http://www.w3.org/2000/svg">
  <circle cx="50" cy="50" r="45" fill="white" stroke="red" stroke-width="2"/>
  <path d="M15,50 q10,-30 25,0 q10,30 25,0" fill="none" stroke="red" stroke-width="2"/>
  <path d="M85,50 q-10,-30 -25,0 q-10,30 -25,0" fill="none" stroke="red" stroke-width="2"/>
</svg> -->

<!-- <svg width="100" height="100" viewBox="0 0 100 100" xmlns="http://www.w3.org/2000/svg">
  <rect x="40" y="10" width="20" height="60" fill="#D19A00"/>
  <rect x="30" y="70" width="40" height="10" fill="#8B4513"/>
</svg> -->

<!-- <svg width="100" height="100" viewBox="0 0 100 100" xmlns="http://www.w3.org/2000/svg">
  <circle cx="50" cy="50" r="45" fill="white" stroke="black" stroke-width="2"/>
  <g fill="black">
    <circle cx="50" cy="50" r="3"/>
    <circle cx="40" cy="40" r="3"/>
    <circle cx="60" cy="40" r="3"/>
    <circle cx="40" cy="60" r="3"/>
    <circle cx="60" cy="60" r="3"/>
  </g>
</svg> -->

<!-- <svg width="100" height="100" viewBox="0 0 100 100" xmlns="http://www.w3.org/2000/svg">
  <path d="M10 80 Q 50 20 90 80" fill="none" stroke="blue" stroke-width="3"/>
  <circle cx="20" cy="80" r="5" fill="blue"/>
  <circle cx="80" cy="80" r="5" fill="blue"/>
</svg> -->

<!-- <svg width="100" height="100" viewBox="0 0 100 100" xmlns="http://www.w3.org/2000/svg">
  <circle cx="50" cy="50" r="45" fill="white" stroke="black" stroke-width="2"/>
  <path d="M10 50 A 40 40 0 0 1 90 50" fill="none" stroke="black" stroke-width="2"/>
  <path d="M10 50 A 40 40 0 0 0 90 50" fill="none" stroke="black" stroke-width="2"/>
</svg> -->

<!-- <svg width="100" height="100" viewBox="0 0 100 100" xmlns="http://www.w3.org/2000/svg">
  <ellipse cx="50" cy="30" rx="20" ry="25" fill="none" stroke="black" stroke-width="2"/>
  <rect x="48" y="30" width="4" height="40" fill="black"/>
</svg> -->

<!-- <svg width="100" height="100" viewBox="0 0 100 100" xmlns="http://www.w3.org/2000/svg">
  <ellipse cx="50" cy="50" rx="40" ry="20" fill="brown" />
  <path d="M10,50 Q50,0 90,50 Q50,100 10,50" fill="none" stroke="white" stroke-width="2"/>
</svg> -->

<!-- <svg width="100" height="100" viewBox="0 0 100 100" xmlns="http://www.w3.org/2000/svg">
  <circle cx="50" cy="50" r="45" fill="white" />
  <circle cx="50" cy="50" r="35" fill="red" />
  <circle cx="50" cy="50" r="25" fill="blue" />
  <circle cx="50" cy="50" r="15" fill="yellow" />
</svg> -->

<!-- <svg width="100" height="100" viewBox="0 0 100 100" xmlns="http://www.w3.org/2000/svg">
  <path d="M10,80 C40,20 60,20 90,80" fill="none" stroke="brown" stroke-width="2"/>
  <line x1="90" y1="80" x2="75" y2="60" stroke="brown" stroke-width="2"/>
  <line x1="90" y1="80" x2="75" y2="100" stroke="brown" stroke-width="2"/>
</svg> -->

<!-- <svg width="100" height="100" viewBox="0 0 100 100" xmlns="http://www.w3.org/2000/svg">
  <rect x="30" y="40" width="40" height="20" fill="black"/>
  <rect x="10" y="40" width="20" height="20" fill="red"/>
  <rect x="70" y="40" width="20" height="20" fill="red"/>
</svg> -->

<!-- <svg width="100" height="100" viewBox="0 0 100 100" xmlns="http://www.w3.org/2000/svg">
  <circle cx="50" cy="70" r="10" fill="black"/>
  <line x1="50" y1="70" x2="70" y2="40" stroke="black" stroke-width="5"/>
  <line x1="50" y1="70" x2="30" y2="50" stroke="black" stroke-width="5"/>
</svg> -->

<!-- <svg width="100" height="100" viewBox="0 0 100 100" xmlns="http://www.w3.org/2000/svg">
  <ellipse cx="50" cy="40" rx="25" ry="15" fill="red" />
  <rect x="45" y="40" width="10" height="30" fill="brown" />
</svg> -->


<!-- new -->

<!-- <svg width="100" height="100" viewBox="0 0 100 100" xmlns="http://www.w3.org/2000/svg">
  <path d="M40 10 L60 10 L60 60 L40 70 Z" fill="none" stroke="black" stroke-width="2"/>
  <path d="M45 70 L55 90" stroke="black" stroke-width="2" />
</svg> -->

<!-- <svg width="100" height="100" viewBox="0 0 100 100" xmlns="http://www.w3.org/2000/svg">
  <circle cx="50" cy="50" r="45" fill="none" stroke="black" stroke-width="2"/>
  <polygon points="50,15 60,40 80,40 65,60 70,85 50,70 30,85 35,60 20,40 40,40" fill="none" stroke="black" stroke-width="2"/>
</svg> -->

<!-- <svg width="100" height="100" viewBox="0 0 100 100" xmlns="http://www.w3.org/2000/svg">
  <path d="M40 10 Q50 5, 60 10 L60 60 L40 70 Z" fill="none" stroke="black" stroke-width="2" stroke-linejoin="round" />
  <path d="M45 70 L55 90" stroke="black" stroke-width="2" stroke-linecap="round" />
</svg> -->

<svg width="100" height="100" viewBox="0 0 100 100" xmlns="http://www.w3.org/2000/svg">
  <!-- Handle of the bat -->
  <rect x="45" y="10" width="10" height="30" fill="none" stroke="black" stroke-width="2" />
  
  <!-- Blade of the bat -->
  <path d="M40 40 L60 40 L55 85 L45 85 Z" fill="none" stroke="black" stroke-width="2" />

  <!-- Bottom edge of the bat -->
  <path d="M45 85 Q50 90, 55 85" fill="none" stroke="black" stroke-width="2"/>
</svg>



